<svg xmlns="http://www.w3.org/2000/svg" xmlns:xlink="http://www.w3.org/1999/xlink" width="1042.98" height="294.665" viewBox="0 0 1042.98 294.665">
  <defs>
    <linearGradient id="linear-gradient" x1="0.097" y1="0.138" x2="0.942" y2="0.875" gradientUnits="objectBoundingBox">
      <stop offset="0" stop-color="#5e1495"/>
      <stop offset="0.398" stop-color="#9317f1"/>
      <stop offset="0.625" stop-color="#bc2800"/>
      <stop offset="1" stop-color="#e37200"/>
    </linearGradient>
    <linearGradient id="linear-gradient-2" x2="1" y2="1" gradientUnits="objectBoundingBox">
      <stop offset="0" stop-color="#009245"/>
      <stop offset="1" stop-color="#fcee21"/>
    </linearGradient>
    <linearGradient id="linear-gradient-3" y1="0.103" x2="0.711" y2="0.786" gradientUnits="objectBoundingBox">
      <stop offset="0" stop-color="#a214d4"/>
      <stop offset="1" stop-color="#fbb03b"/>
    </linearGradient>
    <linearGradient id="linear-gradient-4" x1="0.077" y1="0.077" x2="0.913" y2="0.83" gradientUnits="objectBoundingBox">
      <stop offset="0" stop-color="#2e3192"/>
      <stop offset="1" stop-color="#1bffff"/>
    </linearGradient>
    <linearGradient id="linear-gradient-5" x1="-0.13" y1="0.195" x2="1.126" y2="0.886" gradientUnits="objectBoundingBox">
      <stop offset="0" stop-color="#fdfcfb"/>
      <stop offset="1" stop-color="#e2d1c3"/>
    </linearGradient>
    <linearGradient id="linear-gradient-6" x1="0.031" y1="0.347" x2="1.044" y2="0.624" gradientUnits="objectBoundingBox">
      <stop offset="0" stop-color="#1a0f46"/>
      <stop offset="1" stop-color="#230d6e"/>
    </linearGradient>
  </defs>
  <g id="epicTechie" transform="translate(5691.047 -2023)">
    <path id="Path_5200" data-name="Path 5200" d="M925.413,73.425a37.589,37.589,0,0,0,4.562.525V39.323Zm-15.89-7.109a35.829,35.829,0,0,0,3.971,2.693l-3.971-29.693ZM948.881,47.5V69.827A36.5,36.5,0,0,0,968.414,37.5a35.643,35.643,0,0,0-.7-7.161c.015,1.781-.314,18.78-18.831,17.161m-50.146,5.2V22.3a36.593,36.593,0,0,0,0,30.4m50.138-40.489V34.7h3.606a3.319,3.319,0,0,0,3.321-3.317V15.535a3.319,3.319,0,0,0-3.317-3.321Zm-33.994-6.99c1.875,10.394,5.247,37.891,5.247,37.891l5.285-41.525a36.309,36.309,0,0,0-10.532,3.634" transform="translate(-5616.48 2044.046)" opacity="0.8" fill="url(#linear-gradient)"/>
    <path id="Path_5201" data-name="Path 5201" d="M290.02,153.016a91.3,91.3,0,0,0-37.531-91.353,91.29,91.29,0,0,0-74.817-39.03H92.026A91.8,91.8,0,0,0,75.112,24.2,92.145,92.145,0,0,1,137.293,0h85.646A91.211,91.211,0,0,1,290.02,153.016" transform="translate(-5691.049 2023)" opacity="0.8" fill="url(#linear-gradient-2)"/>
    <path id="Path_5202" data-name="Path 5202" d="M92.026,22.633A92.047,92.047,0,0,0,24.069,52.6a90.61,90.61,0,0,0,2.646,125.744,91.69,91.69,0,0,0,12.313,10.326A90.554,90.554,0,0,1,46.7,75.234a92.323,92.323,0,0,1,67.96-29.967h85.646a90.773,90.773,0,0,1,52.184,16.4,91.3,91.3,0,0,0-74.818-39.03Z" transform="translate(-5691.049 2023)" opacity="0.8" fill="url(#linear-gradient-3)"/>
    <path id="Path_5203" data-name="Path 5203" d="M114.66,45.267A92.323,92.323,0,0,0,46.7,75.234a90.954,90.954,0,0,0,67.149,152.46H163.87v59.49a7.479,7.479,0,0,0,12.864,5.192l88.072-91.4.086-.086A91.208,91.208,0,0,0,200.306,45.267Z" transform="translate(-5691.049 2023)" opacity="0.8" fill="url(#linear-gradient-4)"/>
    <path id="Path_5204" data-name="Path 5204" d="M68.351,134.446l55.2,38.083v-27.5l-26.238-18.2,26.241-16.046V100.431ZM190.6,127.927l26.24,18.208L190.6,162.182v10.347l55.2-34.013-55.2-38.085Zm-61.1,59.638,5.684,2.682L184.653,85.4l-5.684-2.682Z" transform="translate(-5691.049 2023)" fill="url(#linear-gradient-5)"/>
    <path id="Path_5205" data-name="Path 5205" d="M575.476,172.416a16.193,16.193,0,0,1-2.491-2.348q-4.236,4.05-9.044,8.108a80.88,80.88,0,0,1-10.091,7.33,58.6,58.6,0,0,1-11.059,5.347,35.046,35.046,0,0,1-11.948,2.079,6.994,6.994,0,0,1-3.681-.777,3.1,3.1,0,0,1-1.206-2.825,35.775,35.775,0,0,1,.921-7.552,64.79,64.79,0,0,1,2.443-8.3,70.591,70.591,0,0,1,3.554-8.075,53.265,53.265,0,0,1,4.237-6.95,26.663,26.663,0,0,1,4.426-4.887,6.732,6.732,0,0,1,4.253-1.857,1.364,1.364,0,0,1,1.142.556,2.223,2.223,0,0,1,.412,1.38,8.332,8.332,0,0,1-1.38,4.014q-1.38,2.356-3.094,4.713c-1.126,1.555-2.158,3-3.078,4.331a6.184,6.184,0,0,0-1.38,3c0,.6.523.92,1.555.92a20.013,20.013,0,0,0,6.283-1.205,40.8,40.8,0,0,0,6.87-3,32.75,32.75,0,0,0,5.664-3.871,8.261,8.261,0,0,0,2.856-3.823,7.33,7.33,0,0,0-.872-3.175,23.715,23.715,0,0,0-2.269-3.7,43.188,43.188,0,0,0-3.078-3.728c-1.143-1.239-2.269-2.334-3.364-3.317a23.015,23.015,0,0,0-3.094-2.364,4.92,4.92,0,0,0-2.253-.873,34.619,34.619,0,0,0-10.885,1.761,42.325,42.325,0,0,0-10.043,4.793,48.783,48.783,0,0,0-8.727,7.234,51.309,51.309,0,0,0-6.87,8.98,45.175,45.175,0,0,0-4.459,10.107q-.476,1.572-.809,3.142c-1.444,1.238-2.951,2.475-4.506,3.729q-2.856,2.309-5.474,4.236-2.642,1.928-4.665,3.142a7,7,0,0,1-3.03,1.19.484.484,0,0,1-.556-.556,13.153,13.153,0,0,1,.635-3.221c.428-1.475.984-3.189,1.666-5.172.682-1.952,1.444-4.062,2.3-6.315.857-2.237,1.729-4.474,2.586-6.728.857-2.236,1.666-4.41,2.443-6.488.762-2.1,1.4-3.9,1.889-5.442a10.327,10.327,0,0,0,.269-1.064,3.232,3.232,0,0,0,.1-.7c0-.92-.634-2.015-1.935-3.267a34.985,34.985,0,0,0-4.379-3.6,52.185,52.185,0,0,0-4.649-2.9,9.168,9.168,0,0,0-2.777-1.19c-.238,0-.762.825-1.555,2.491-.809,1.651-1.745,3.839-2.824,6.537-1.063,2.713-2.269,5.791-3.586,9.267-1.063,2.791-2.094,5.616-3.046,8.5l-.143-.158a142.083,142.083,0,0,1-10.869,9.5c-1.6,1.285-3.3,2.586-5.077,3.919-1.777,1.317-3.6,2.586-5.443,3.824q-2.76,1.833-5.569,3.459a50.044,50.044,0,0,1-5.49,2.713,51.284,51.284,0,0,0,6.173-7.648,74.051,74.051,0,0,0,5.442-9.551,65.488,65.488,0,0,0,3.871-10.138,34.232,34.232,0,0,0,1.476-9.442,12.967,12.967,0,0,0-.222-2.364A4.228,4.228,0,0,0,456.714,152c-.682-.682-1.507-1.571-2.491-2.681s-2.047-2.174-3.173-3.221a25.725,25.725,0,0,0-3.459-2.682,6.239,6.239,0,0,0-3.237-1.094,9.653,9.653,0,0,0-3.316.92,27.4,27.4,0,0,0-5.395,3.269,79.759,79.759,0,0,0-7.33,6.362,115.1,115.1,0,0,0-9.123,10.186l3.141-9.218c.175-.556.349-1.063.508-1.524a1.291,1.291,0,0,0,.048-.968,14,14,0,0,0-2.317-2.855,38.705,38.705,0,0,0-3.729-3.269,37.915,37.915,0,0,0-4.2-2.856,17.21,17.21,0,0,0-3.586-1.713,1.011,1.011,0,0,0-.968.412,6.622,6.622,0,0,0-.508,1.428q-4.712,14.328-9.885,28.528-3.927,3.666-7.917,7.251a77.1,77.1,0,0,1-9.584,7.378,54.066,54.066,0,0,1-10.376,5.252,32.379,32.379,0,0,1-11.472,2.031c-2.285,0-3.824-.333-4.665-1.015-.825-.683-1.237-1.968-1.237-3.872a37.029,37.029,0,0,1,.269-4.332q8.116-3.593,14.852-7.155a101.953,101.953,0,0,0,11.519-6.95,36.63,36.63,0,0,0,7.425-6.7,10.326,10.326,0,0,0,2.634-6.394,9.872,9.872,0,0,0-1.428-4.569,24.755,24.755,0,0,0-8.853-9.092,11.187,11.187,0,0,0-5.681-1.649,33.112,33.112,0,0,0-8.663,1.284,45.469,45.469,0,0,0-9.44,3.871,49.464,49.464,0,0,0-9.14,6.459,47.151,47.151,0,0,0-7.79,8.948,46.65,46.65,0,0,0-5.49,11.376,44.419,44.419,0,0,0-2.063,13.884,9.932,9.932,0,0,0,1.746,4.887,30.769,30.769,0,0,0,4.379,5.489,31.336,31.336,0,0,0,5.664,4.475,11.028,11.028,0,0,0,5.538,1.84,52.429,52.429,0,0,0,12.122-1.475,60.962,60.962,0,0,0,13.058-4.887,94.974,94.974,0,0,0,14.328-9.044q2.689-2.023,5.521-4.379-3.45,9.376-7,18.722-5.664,14.97-11.424,29.972-5.76,14.97-11.122,30.2l23.419-5.538q4.164-12.543,8.488-25.164,4.332-12.639,8.664-24.99a176.9,176.9,0,0,1,11.154-22.817,184.159,184.159,0,0,1,11.154-16.977,90.706,90.706,0,0,1,9.187-10.694c2.6-2.491,4.347-3.856,5.2-4.094a1.139,1.139,0,0,1,.651,0,4.2,4.2,0,0,1,.412.508,2.134,2.134,0,0,1,.222,1.142,12.94,12.94,0,0,1-.682,3.1c-.46,1.507-1.1,3.284-1.888,5.347q-1.213,3.093-2.777,6.632c-1.047,2.38-2.142,4.665-3.316,6.87a59.6,59.6,0,0,1-5.807,9.139,37.889,37.889,0,0,1-4.427,4.7,26.97,26.97,0,0,1-2.808,2.174,1.633,1.633,0,0,0-.968,1.332,4.427,4.427,0,0,0,1.7,2.9,22.292,22.292,0,0,0,4.062,3,34.012,34.012,0,0,0,4.839,2.348,11.9,11.9,0,0,0,4.157.968,16.375,16.375,0,0,0,5.712-1.285,56.757,56.757,0,0,0,7.187-3.507c2.587-1.476,5.268-3.173,8.077-5.077q4.188-2.856,8.25-6c2.4-1.856,4.729-3.744,6.966-5.648-.191.555-.349,1.126-.524,1.681-1.031,3.507-1.872,6.617-2.475,9.314a5.533,5.533,0,0,0,1.38,3.412,16.736,16.736,0,0,0,3.316,3.189,22.99,22.99,0,0,0,4.062,2.4,8.772,8.772,0,0,0,3.491.967,12.993,12.993,0,0,0,5.347-1.475,52.069,52.069,0,0,0,6.743-3.872q3.594-2.4,7.41-5.442,2.666-2.118,5.188-4.236c.032.444.08.841.127,1.19a6.615,6.615,0,0,0,.73,2.316,27.075,27.075,0,0,0,3.459,5.109,31.683,31.683,0,0,0,4.284,4.237,24.048,24.048,0,0,0,4.332,2.872,8.74,8.74,0,0,0,3.776,1.047,55.9,55.9,0,0,0,16.279-2.348,73.045,73.045,0,0,0,14.9-6.363,88.784,88.784,0,0,0,13.5-9.393,152.771,152.771,0,0,0,12.125-11.4,16.451,16.451,0,0,0-2.206-1.984m-217.23-6.456a57.443,57.443,0,0,1,4.236-7.427,29.075,29.075,0,0,1,4.427-5.2,6.414,6.414,0,0,1,4.062-1.984,1.857,1.857,0,0,1,1.523.651,2.348,2.348,0,0,1,.508,1.477,11.76,11.76,0,0,1-1.571,5.711,27.2,27.2,0,0,1-4.157,5.586,48.471,48.471,0,0,1-5.855,5.2c-2.174,1.666-4.411,3.221-6.68,4.7a71.748,71.748,0,0,1,3.507-8.709M514.39,113.218a33.764,33.764,0,0,0-3.872-2.713,38.381,38.381,0,0,0-4.665-2.444A10.29,10.29,0,0,0,501.807,107c-.555,0-1.348.713-2.348,2.125a38.511,38.511,0,0,0-3,5.015,50.3,50.3,0,0,0-2.586,6,15.506,15.506,0,0,0-1.111,5.03c0,.3.508.825,1.524,1.569a30.412,30.412,0,0,0,3.7,2.254,45.112,45.112,0,0,0,4.507,2.078,13.3,13.3,0,0,0,4.014,1.015c.365,0,.857-.4,1.475-1.158a22.725,22.725,0,0,0,1.936-2.9c.682-1.173,1.365-2.443,2.079-3.822s1.333-2.715,1.888-3.968,1.031-2.364,1.428-3.316a19.312,19.312,0,0,0,.7-1.809c0-.364-.54-1-1.618-1.888M734.513,60.031c-3.421-.052-6.88-.159-10.375-.3-3.5-.123-7.225-.258-11.206-.372-3.963-.13-8.358-.216-13.129-.257-4.771-.025-10.171.019-16.163.149q-11.5.245-22.246,1.052T640.1,62.9a188.688,188.688,0,0,0-21.031,4.844,173.337,173.337,0,0,0-21.487,7.9,206.025,206.025,0,0,1,7.742,24.406q2.985,11.979,4.738,22.816t2.471,20.343q.715,9.491.889,17.137c.1,4.8.086,9.053-.033,12.71-.138,3.657-.324,6.722-.542,9.157-.225,2.939-.513,5.466-.882,7.562q4.766-12.038,9.229-25.473,4.491-13.437,8.484-26.645,4.009-13.209,7.391-25.524,3.41-12.306,5.971-22.092,2.55-9.8,4.2-16.364,1.614-6.567,2.125-8.362Q651.7,67.153,655.049,70c2.237,1.915,4.494,3.882,6.77,5.923s4.406,4.009,6.355,5.893c1.966,1.866,3.476,3.418,4.546,4.655q-2.409,9.775-6.432,21.579-4.04,11.807-8.946,24.369t-10.3,25.172q-5.373,12.618-10.468,23.916t-9.441,20.6q-4.365,9.3-7.161,15.311c-1.066-1.021-2.374-2.415-3.96-4.2-1.569-1.785-3.173-3.569-4.815-5.388s-3.153-3.5-4.555-5.069q-2.1-2.385-3.061-3.39c.126-.849.365-2.294.7-4.354.333-2.077.674-4.659.985-7.762.311-3.121.576-6.727.758-10.854.2-4.108.227-8.682.12-13.7q-.185-8.583-1.116-18.446a172.228,172.228,0,0,0-3.32-20.487,164.748,164.748,0,0,0-6.589-21.821,149.469,149.469,0,0,0-10.835-22.578.1.1,0,0,1-.111-.1c-.073-.053-.113-.231-.119-.52a8.431,8.431,0,0,1,.677-2.877,34.315,34.315,0,0,1,1.84-4.018c.779-1.457,1.612-2.9,2.517-4.338.923-1.459,1.778-2.721,2.6-3.782q.5-.633,4.957-3.077c2.953-1.63,7.052-3.589,12.26-5.862q7.839-3.408,18.673-7.313,10.854-3.879,24.057-7.267,13.213-3.362,28.5-5.67a246.817,246.817,0,0,1,31.9-2.682c.5.547,1.31,1.465,2.417,2.72,1.107,1.272,2.363,2.74,3.8,4.419s2.955,3.5,4.563,5.447,3.162,3.874,4.678,5.75c1.5,1.9,2.87,3.7,4.077,5.4,1.225,1.72,2.211,3.211,2.939,4.438M965.478,169.878c-3.015,2.824-6.045,5.632-9.123,8.393a78.3,78.3,0,0,1-9.584,7.378A54.54,54.54,0,0,1,936.4,190.9a32.467,32.467,0,0,1-11.488,2.031c-2.269,0-3.824-.333-4.649-1.015s-1.253-1.968-1.253-3.872a33.91,33.91,0,0,1,.285-4.332q8.117-3.593,14.836-7.155a103.753,103.753,0,0,0,11.535-6.95,37.518,37.518,0,0,0,7.425-6.7,10.3,10.3,0,0,0,2.618-6.394,9.873,9.873,0,0,0-1.428-4.569,23.53,23.53,0,0,0-3.728-5.03,24.172,24.172,0,0,0-5.125-4.062,11.132,11.132,0,0,0-5.665-1.649,32.929,32.929,0,0,0-8.663,1.284,45.589,45.589,0,0,0-9.456,3.871,49.9,49.9,0,0,0-9.124,6.459,46.6,46.6,0,0,0-7.79,8.948,46.074,46.074,0,0,0-5.49,11.376,37.63,37.63,0,0,0-1.142,4.332c-1.492,1.285-3.031,2.554-4.618,3.84q-2.85,2.309-5.49,4.236c-1.745,1.285-3.3,2.332-4.648,3.142a7.117,7.117,0,0,1-3.047,1.19.489.489,0,0,1-.555-.556,13.372,13.372,0,0,1,.65-3.221c.429-1.475.984-3.189,1.65-5.172.683-1.952,1.444-4.062,2.317-6.315.857-2.237,1.714-4.474,2.57-6.728.873-2.236,1.682-4.41,2.444-6.488.777-2.1,1.4-3.9,1.888-5.442.127-.429.222-.795.286-1.064a3.3,3.3,0,0,0,.1-.7c0-.92-.651-2.015-1.936-3.267a36.381,36.381,0,0,0-4.4-3.6,51.919,51.919,0,0,0-4.649-2.9,9.314,9.314,0,0,0-2.761-1.19c-.254,0-.777.825-1.571,2.491s-1.745,3.839-2.808,6.537c-1.079,2.713-2.285,5.791-3.6,9.267-1.031,2.728-2.046,5.52-3,8.345-.73.619-1.809,1.523-3.221,2.729-1.412,1.19-3.031,2.507-4.84,3.951s-3.712,2.919-5.68,4.426-3.887,2.872-5.759,4.11c-1.873,1.222-3.57,2.237-5.11,3.046a8.759,8.759,0,0,1-3.7,1.19.489.489,0,0,1-.555-.555,15.176,15.176,0,0,1,.651-3.269c.428-1.57.983-3.379,1.666-5.442.666-2.047,1.444-4.316,2.3-6.775s1.73-4.9,2.634-7.329q1.333-3.644,2.475-6.918c.778-2.175,1.428-4.1,1.984-5.761a8.419,8.419,0,0,0,.381-1.237,2.368,2.368,0,0,0,0-1.254,8.813,8.813,0,0,0-2.412-2.57,45.571,45.571,0,0,0-4.237-3.047c-1.539-.983-3.014-1.823-4.426-2.538a8.493,8.493,0,0,0-2.952-1.063,10.934,10.934,0,0,0-3.459.873,32.751,32.751,0,0,0-5.473,2.95,71.7,71.7,0,0,0-7.378,5.586,123.9,123.9,0,0,0-9.124,8.664c.968-3.127,2.079-6.364,3.316-9.68q7.284-7,13.963-14.47t12.455-14.8q5.76-7.329,10.5-14.3,4.735-6.949,8.06-13.041a88.605,88.605,0,0,0,5.173-10.98,24.279,24.279,0,0,0,1.84-8.2,10.777,10.777,0,0,0-.174-1.476,4.234,4.234,0,0,0-.746-1.746,28.333,28.333,0,0,0-2.348-2.681c-1.016-1.032-2.174-2.11-3.459-3.22A35.1,35.1,0,0,0,855.157,62a17.973,17.973,0,0,0-4.284-2.031q-4.33.285-9.535,4.856A79.4,79.4,0,0,0,830.453,76.9a192.923,192.923,0,0,0-11.519,17.328q-5.855,9.828-11.25,20.705T797.53,137.1q-4.737,11.3-8.283,21.673c-1.539,4.49-2.872,8.758-3.966,12.8-2.348,2.206-4.84,4.411-7.426,6.6a82.237,82.237,0,0,1-10.107,7.33,58.132,58.132,0,0,1-11.059,5.347,35.021,35.021,0,0,1-11.932,2.079,7.019,7.019,0,0,1-3.7-.777,3.127,3.127,0,0,1-1.19-2.825,34.761,34.761,0,0,1,.921-7.552,64.8,64.8,0,0,1,2.443-8.3,70.5,70.5,0,0,1,3.538-8.075,55.1,55.1,0,0,1,4.253-6.95,26.661,26.661,0,0,1,4.426-4.887,6.729,6.729,0,0,1,4.237-1.857,1.393,1.393,0,0,1,1.158.556,2.329,2.329,0,0,1,.413,1.38,8.335,8.335,0,0,1-1.381,4.014q-1.38,2.356-3.094,4.713-1.713,2.332-3.094,4.331a6.184,6.184,0,0,0-1.38,3c0,.6.523.92,1.571.92a20,20,0,0,0,6.267-1.205,40.768,40.768,0,0,0,6.87-3,32.187,32.187,0,0,0,5.665-3.871,8.275,8.275,0,0,0,2.856-3.823,7.333,7.333,0,0,0-.873-3.175,23.568,23.568,0,0,0-2.253-3.7,40.652,40.652,0,0,0-3.094-3.728,43.481,43.481,0,0,0-3.364-3.317,23.01,23.01,0,0,0-3.094-2.364,4.92,4.92,0,0,0-2.253-.873,34.686,34.686,0,0,0-10.884,1.761,42.948,42.948,0,0,0-10.044,4.793,48.13,48.13,0,0,0-8.711,7.234,49.8,49.8,0,0,0-6.87,8.98,45.916,45.916,0,0,0-4.474,10.107c-.27.921-.524,1.841-.714,2.761-.381.349-.778.714-1.175,1.063a78.378,78.378,0,0,1-9.583,7.378,54.51,54.51,0,0,1-10.377,5.252,32.458,32.458,0,0,1-11.487,2.031c-2.269,0-3.824-.333-4.649-1.015s-1.238-1.968-1.238-3.872a33.858,33.858,0,0,1,.27-4.332q8.115-3.593,14.851-7.155a103.318,103.318,0,0,0,11.519-6.95,37.5,37.5,0,0,0,7.426-6.7,10.3,10.3,0,0,0,2.618-6.394,9.873,9.873,0,0,0-1.428-4.569,23.538,23.538,0,0,0-3.729-5.03,23.779,23.779,0,0,0-5.125-4.062,11.126,11.126,0,0,0-5.664-1.649,32.917,32.917,0,0,0-8.663,1.284,45.573,45.573,0,0,0-9.457,3.871,49.9,49.9,0,0,0-9.123,6.459,46.052,46.052,0,0,0-13.281,20.324,44.414,44.414,0,0,0-2.078,13.884,9.828,9.828,0,0,0,1.761,4.887,29.4,29.4,0,0,0,4.379,5.489,30.3,30.3,0,0,0,5.665,4.475,10.977,10.977,0,0,0,5.537,1.84A52.43,52.43,0,0,0,688,202.246a61.154,61.154,0,0,0,13.043-4.887,94.318,94.318,0,0,0,14.343-9.044c.873-.651,1.761-1.333,2.65-2.047.032.793.079,1.476.159,2.047a6.6,6.6,0,0,0,.745,2.316,27.028,27.028,0,0,0,3.443,5.109,32.71,32.71,0,0,0,4.3,4.237,24.048,24.048,0,0,0,4.332,2.872,8.682,8.682,0,0,0,3.776,1.047,56.05,56.05,0,0,0,16.279-2.348,72.89,72.89,0,0,0,14.883-6.363,89.724,89.724,0,0,0,13.519-9.393c1.063-.9,2.126-1.809,3.157-2.745a57.375,57.375,0,0,0-1,9.885,3.064,3.064,0,0,0,.365,1.65,10.862,10.862,0,0,0,.937,1.206,27.612,27.612,0,0,0,2.935,2.3c1.237.872,2.491,1.682,3.792,2.443,1.285.778,2.523,1.428,3.681,1.983a7.055,7.055,0,0,0,2.586.841,2.436,2.436,0,0,0,1.7-.476,2.952,2.952,0,0,0,.793-1.459,86.868,86.868,0,0,1,5.252-13.52,133.431,133.431,0,0,1,6.585-11.931,110.723,110.723,0,0,1,7.013-10.011c2.364-2.983,4.554-5.522,6.553-7.649,1.983-2.125,3.7-3.791,5.109-5.03a10.514,10.514,0,0,1,2.856-2.03c-1.222,2.839-2.571,6.045-4.014,9.646s-2.793,7.235-4.046,10.916c-1.27,3.7-2.349,7.283-3.269,10.79a39.2,39.2,0,0,0-1.476,9.218,4.715,4.715,0,0,0,1.508,3.19,18.532,18.532,0,0,0,3.7,2.951,25.926,25.926,0,0,0,4.522,2.2,11.878,11.878,0,0,0,4.093.873,13.566,13.566,0,0,0,5.252-1.381,50.893,50.893,0,0,0,6.744-3.681q3.593-2.309,7.378-5.172,3.759-2.856,7.282-5.807c1.254-1.063,2.46-2.1,3.618-3.126-.1.333-.206.666-.3,1q-1.57,5.261-2.491,9.314a5.529,5.529,0,0,0,1.381,3.412,17.154,17.154,0,0,0,3.316,3.189,23.55,23.55,0,0,0,4.062,2.4,8.831,8.831,0,0,0,3.506.967,13.052,13.052,0,0,0,5.347-1.475,51.9,51.9,0,0,0,6.728-3.872q3.594-2.4,7.425-5.442,2.619-2.094,5.125-4.173a9.954,9.954,0,0,0,1.746,4.729,29.4,29.4,0,0,0,4.379,5.489,30.261,30.261,0,0,0,5.664,4.475,10.98,10.98,0,0,0,5.538,1.84,52.532,52.532,0,0,0,12.122-1.475,61.166,61.166,0,0,0,13.042-4.887,94.28,94.28,0,0,0,14.344-9.044A161.521,161.521,0,0,0,970,174.4Zm-40.65-3.918a57.325,57.325,0,0,1,4.236-7.427,29.065,29.065,0,0,1,4.427-5.2,6.416,6.416,0,0,1,4.046-1.984,1.815,1.815,0,0,1,1.523.651,2.258,2.258,0,0,1,.508,1.477,11.912,11.912,0,0,1-1.555,5.711,27.8,27.8,0,0,1-4.157,5.586,48.47,48.47,0,0,1-5.855,5.2c-2.174,1.666-4.411,3.221-6.68,4.7a69.267,69.267,0,0,1,3.507-8.709m-98.611-46.554q2.07-4.665,4.284-9.36,4.046-8.592,7.79-15.868t6.87-12.535a92.444,92.444,0,0,1,5.4-8.25c1.507-2,2.618-3,3.364-3,.492,0,.73.681.73,2.03q0,4.332-2.761,10.694A116.631,116.631,0,0,1,844.558,97q-4.569,7.5-10.376,15.66-5.806,8.141-11.98,16.088c1.286-3.125,2.634-6.25,4.015-9.345M686.209,165.96a57.328,57.328,0,0,1,4.237-7.427,29.032,29.032,0,0,1,4.427-5.2,6.412,6.412,0,0,1,4.061-1.984,1.8,1.8,0,0,1,1.508.651,2.271,2.271,0,0,1,.523,1.477,11.758,11.758,0,0,1-1.57,5.711,27.253,27.253,0,0,1-4.158,5.586,48.456,48.456,0,0,1-5.854,5.2c-2.174,1.666-4.411,3.221-6.68,4.7a69.413,69.413,0,0,1,3.506-8.709m221.229-52.742a33.739,33.739,0,0,0-3.871-2.713,39.544,39.544,0,0,0-4.649-2.444A10.363,10.363,0,0,0,894.856,107c-.556,0-1.333.713-2.348,2.125a38.294,38.294,0,0,0-3,5.015,52.877,52.877,0,0,0-2.587,6,15.964,15.964,0,0,0-1.11,5.03c0,.3.523.825,1.523,1.569a31.637,31.637,0,0,0,3.7,2.254,45.365,45.365,0,0,0,4.522,2.078,13.224,13.224,0,0,0,4,1.015c.381,0,.873-.4,1.476-1.158a21.238,21.238,0,0,0,1.936-2.9c.682-1.173,1.364-2.443,2.078-3.822s1.333-2.715,1.888-3.968,1.032-2.364,1.428-3.316a18.727,18.727,0,0,0,.7-1.809c0-.364-.539-1-1.618-1.888" transform="translate(-5691.049 2023.146)" opacity="0.8" fill="url(#linear-gradient-6)"/>
  </g>
</svg>
