<svg xmlns="http://www.w3.org/2000/svg" xmlns:xlink="http://www.w3.org/1999/xlink" width="950" height="950" viewBox="0 0 950 950">
  <defs>
    <linearGradient id="linear-gradient" x1="0.097" y1="0.138" x2="0.942" y2="0.875" gradientUnits="objectBoundingBox">
      <stop offset="0" stop-color="#8a1aeb"/>
      <stop offset="0.402" stop-color="#df6fff"/>
      <stop offset="0.589" stop-color="#e23102"/>
      <stop offset="1" stop-color="#fcca41"/>
    </linearGradient>
  </defs>
  <path id="Path_4783" data-name="Path 4783" d="M390.3,943.1l59.38-447.691V950a485.3,485.3,0,0,1-59.38-6.9M695.753,602.733c241.038,21.273,245.314-201.9,245.124-225.282a472.044,472.044,0,0,1,9.12,94,479.681,479.681,0,0,1-254.244,424.4ZM183.464,849.768V495.315l51.685,389.812a465.532,465.532,0,0,1-51.685-35.359M0,471.55a480.5,480.5,0,0,1,43.039-199.6V671.056A480.077,480.077,0,0,1,0,471.55M253.2,47.72A470.035,470.035,0,0,1,390.3,0L321.512,545.143S277.618,184.174,253.2,47.72M695.658,434.658V139.52h46.935a43.389,43.389,0,0,1,43.229,43.548v207.99a43.391,43.391,0,0,1-43.178,43.6H695.658Z" fill="url(#linear-gradient)"/>
</svg>
