<svg xmlns="http://www.w3.org/2000/svg" xmlns:xlink="http://www.w3.org/1999/xlink" width="999.903" height="991.4" viewBox="0 0 999.903 991.4">
  <defs>
    <linearGradient id="linear-gradient" x1="0.097" y1="0.138" x2="0.942" y2="0.875" gradientUnits="objectBoundingBox">
      <stop offset="0" stop-color="#5e1495"/>
      <stop offset="0.398" stop-color="#9317f1"/>
      <stop offset="0.625" stop-color="#bc2800"/>
      <stop offset="1" stop-color="#e37200"/>
    </linearGradient>
  </defs>
  <path id="mpc" d="M45.3,700.3V283.8a501.326,501.326,0,0,0,0,416.5M193.1,886.8a490.382,490.382,0,0,0,54.4,36.9L193.1,516.9ZM473.3,991.4V517L410.8,984.2a515.087,515.087,0,0,0,62.5,7.2m517-597.5c.2,24.4-4.3,257.3-258,235.1V934.9C891.4,851.2,999.9,684.3,999.9,492a488.655,488.655,0,0,0-9.6-98.1M827.1,408.1v-217a45.473,45.473,0,0,0-45.446-45.5H732.2v308h49.4a45.473,45.473,0,0,0,45.5-45.446ZM338.4,568.9,410.8,0A497.559,497.559,0,0,0,266.5,49.8c25.7,142.4,71.9,519.1,71.9,519.1" fill="url(#linear-gradient)"/>
</svg>
